<svg width="32" height="32" viewBox="0 0 32 32" fill="none" xmlns="http://www.w3.org/2000/svg">
<path fill-rule="evenodd" clip-rule="evenodd" d="M29.9998 16.0003C29.9998 15.7351 29.8945 15.4807 29.7069 15.2932C29.5194 15.1056 29.2651 15.0003 28.9998 15.0003H5.41383L11.7078 8.70829C11.8008 8.61531 11.8746 8.50493 11.9249 8.38345C11.9752 8.26198 12.0011 8.13177 12.0011 8.00029C12.0011 7.8688 11.9752 7.7386 11.9249 7.61712C11.8746 7.49564 11.8008 7.38526 11.7078 7.29229C11.6149 7.19931 11.5045 7.12556 11.383 7.07524C11.2615 7.02492 11.1313 6.99902 10.9998 6.99902C10.8683 6.99902 10.7381 7.02492 10.6167 7.07524C10.4952 7.12556 10.3848 7.19931 10.2918 7.29229L2.29183 15.2923C2.19871 15.3852 2.12482 15.4955 2.07441 15.617C2.024 15.7385 1.99805 15.8688 1.99805 16.0003C1.99805 16.1318 2.024 16.2621 2.07441 16.3836C2.12482 16.505 2.19871 16.6154 2.29183 16.7083L10.2918 24.7083C10.3848 24.8013 10.4952 24.875 10.6167 24.9253C10.7381 24.9757 10.8683 25.0015 10.9998 25.0015C11.1313 25.0015 11.2615 24.9757 11.383 24.9253C11.5045 24.875 11.6149 24.8013 11.7078 24.7083C11.8008 24.6153 11.8746 24.5049 11.9249 24.3835C11.9752 24.262 12.0011 24.1318 12.0011 24.0003C12.0011 23.8688 11.9752 23.7386 11.9249 23.6171C11.8746 23.4956 11.8008 23.3853 11.7078 23.2923L5.41383 17.0003H28.9998C29.2651 17.0003 29.5194 16.8949 29.7069 16.7074C29.8945 16.5199 29.9998 16.2655 29.9998 16.0003Z" />
</svg>
