<svg width="29" height="28" viewBox="0 0 29 28" fill="none" xmlns="http://www.w3.org/2000/svg">
<g clip-path="url(#clip0_3_14501)">
<path fill-rule="evenodd" clip-rule="evenodd" d="M14.5032 4.80774L13.2485 3.51799C10.3032 0.490492 4.90272 1.53524 2.95322 5.34149C2.03797 7.13174 1.83147 9.71649 3.50272 13.0152C5.11272 16.1915 8.46222 19.996 14.5032 24.14C20.5442 19.996 23.892 16.1915 25.5037 13.0152C27.175 9.71474 26.9702 7.13174 26.0532 5.34149C24.1037 1.53524 18.7032 0.488742 15.758 3.51624L14.5032 4.80774ZM14.5032 26.2487C-12.3295 8.51774 6.24147 -5.32126 14.1952 1.99899C14.3002 2.09524 14.4035 2.19499 14.5032 2.29824C14.602 2.19509 14.7047 2.09584 14.8112 2.00074C22.7632 -5.32476 41.336 8.51599 14.5032 26.2487Z"/>
</g>
<defs>
<clipPath id="clip0_3_14501">
<rect width="28" height="28" transform="translate(0.5)"/>
</clipPath>
</defs>
</svg>
